<?xml version="1.0" encoding="UTF-8"?>
<svg id="_레이어_2" data-name="레이어 2" xmlns="http://www.w3.org/2000/svg" viewBox="0 0 1848.28 414.99">
  <defs>
    <style>
      .cls-1 {
        fill: #fff;
        stroke-width: 0px;
      }
    </style>
  </defs>
  <g id="_레이어_1-2" data-name="레이어 1">
    <g>
      <path class="cls-1" d="M53.83,100.04c-17.25.14-30.54,6.83-39.85,20.08C4.66,133.37,0,152.35,0,177.05s4.66,43.51,13.97,56.83c9.32,13.32,22.6,20.05,39.85,20.19,17.25.14,30.5-6.45,39.75-19.77,9.25-13.32,13.87-32.4,13.87-57.24s-4.63-43.92-13.87-57.24c-9.25-13.32-22.5-19.91-39.75-19.77ZM82.08,223.32c-6.56,10.84-15.98,16.25-28.26,16.25s-21.74-5.42-28.36-16.25c-6.62-10.83-9.94-26.26-9.94-46.27s3.31-35.61,9.94-46.37c6.62-10.77,16.08-16.15,28.36-16.15s21.7,5.38,28.26,16.15c6.55,10.77,9.83,26.22,9.83,46.37s-3.28,35.44-9.83,46.27Z"/>
      <path class="cls-1" d="M193.15,103.56h-57.55v145.74h15.53v-65.42h42.03c13.11,0,23.22-3.45,30.33-10.35,7.11-6.9,10.66-16.7,10.66-29.4,0-13.39-3.56-23.5-10.66-30.33-7.11-6.83-17.22-10.25-30.33-10.25ZM212.2,162.97c-4.28,4.42-10.63,6.56-19.05,6.42h-42.03v-51.34h42.03c8.14,0,14.42,2.17,18.84,6.52,4.42,4.35,6.62,10.87,6.62,19.56,0,8.15-2.14,14.42-6.42,18.84Z"/>
      <polygon class="cls-1" points="260.85 250.54 351.73 250.54 351.73 236.05 276.37 236.05 276.37 180.98 348.21 180.98 348.21 165.46 276.37 165.46 276.37 118.05 351.73 118.05 351.73 103.56 260.85 103.56 260.85 250.54"/>
      <polygon class="cls-1" points="460.21 250.54 475.73 250.54 475.53 103.56 380.92 103.56 380.92 250.54 396.44 250.54 396.44 118.05 460 118.05 460.21 250.54"/>
      <path class="cls-1" d="M691.03,168.56l-22.57-8.49c-8.15-3.17-14.15-6.24-18.01-9.21-3.87-2.97-5.94-6.38-6.21-10.25-.28-5.1.9-9.69,3.52-13.77,2.62-4.07,6.31-7.21,11.08-9.42,4.76-2.21,10.25-3.17,16.46-2.9,9.38.14,17.25,3.07,23.6,8.8,6.35,5.73,9.8,12.94,10.35,21.63h15.53c-.69-13.39-5.49-24.12-14.39-32.19-8.9-8.07-20.53-12.32-34.88-12.73-9.25-.27-17.53,1.42-24.84,5.07-7.32,3.66-12.94,8.7-16.87,15.11-3.93,6.42-5.63,13.7-5.07,21.84.55,7.18,3.48,13.35,8.8,18.53,5.31,5.18,13.56,9.77,24.74,13.77l21.94,7.87c17.8,6.35,26.91,15.18,27.33,26.5.41,5.66-.9,10.73-3.93,15.22-3.04,4.49-7.32,7.97-12.84,10.45-5.52,2.48-11.8,3.66-18.84,3.52-7.04-.27-13.25-2.03-18.63-5.28-5.38-3.24-9.63-7.69-12.73-13.35-3.11-5.66-4.66-12.08-4.66-19.25h-15.53c0,10.63,2.1,19.87,6.31,27.74,4.21,7.87,10.18,13.94,17.91,18.22,7.73,4.28,16.9,6.42,27.53,6.42,9.8,0,18.56-2.03,26.29-6.11,7.73-4.07,13.8-9.59,18.22-16.56,4.42-6.97,6.42-14.73,6-23.29-.83-16.56-12.7-29.19-35.61-37.89Z"/>
      <path class="cls-1" d="M799.1,100.04c-17.25.14-30.54,6.83-39.85,20.08-9.32,13.25-13.97,32.23-13.97,56.93s4.66,43.51,13.97,56.83c9.32,13.32,22.6,20.05,39.85,20.19,17.25.14,30.5-6.45,39.75-19.77,9.25-13.32,13.87-32.4,13.87-57.24s-4.63-43.92-13.87-57.24c-9.25-13.32-22.5-19.91-39.75-19.77ZM827.36,223.32c-6.56,10.84-15.98,16.25-28.26,16.25s-21.74-5.42-28.36-16.25c-6.62-10.83-9.94-26.26-9.94-46.27s3.31-35.61,9.94-46.37c6.62-10.77,16.08-16.15,28.36-16.15s21.7,5.38,28.26,16.15c6.55,10.77,9.83,26.22,9.83,46.37s-3.28,35.44-9.83,46.27Z"/>
      <path class="cls-1" d="M966.79,103.56h-15.53l-.21,132.5-34.99-.21c-8.42,0-15.11-2.07-20.08-6.21-4.97-4.14-7.45-9.8-7.45-16.98l.21-109.1h-15.53v43.48l-.21,67.9c0,6.9,1.72,13.04,5.18,18.42,3.45,5.38,8.18,9.59,14.18,12.63,6,3.04,12.94,4.55,20.81,4.55h53.41l.21-146.99Z"/>
      <path class="cls-1" d="M1018.75,183.88h28.15l36.85,66.66h19.87l-37.06-67.08c10.63-1.38,18.8-5.45,24.53-12.21,5.73-6.76,8.59-15.8,8.59-27.12,0-13.11-3.55-23.15-10.66-30.12-7.11-6.97-17.22-10.46-30.33-10.46h-55.48v146.99h15.53v-66.66ZM1018.75,118.05h39.96c8.14,0,14.42,2.25,18.84,6.73,4.42,4.49,6.62,10.94,6.62,19.36.28,8.15-1.79,14.39-6.21,18.74-4.42,4.35-10.84,6.52-19.25,6.52h-39.96v-51.34Z"/>
      <path class="cls-1" d="M1175.67,254.06c27.6.14,43.54-17.04,47.82-51.55h-15.53c-3.45,24.71-14.22,37.06-32.3,37.06-12.01,0-21.26-5.45-27.74-16.35-6.49-10.9-9.73-26.36-9.73-46.37s3.14-35.64,9.42-46.48c6.28-10.83,15.22-16.25,26.81-16.25,19.74,0,31.12,12.42,34.16,37.26h15.53c-4.55-34.5-20.91-51.76-49.06-51.76-17.11,0-30.3,6.7-39.54,20.08-9.25,13.39-13.87,32.44-13.87,57.14s4.69,43.55,14.08,56.93c9.38,13.39,22.7,20.15,39.96,20.29Z"/>
      <polygon class="cls-1" points="1345.43 236.05 1270.07 236.05 1270.07 180.98 1341.91 180.98 1341.91 165.46 1270.07 165.46 1270.07 118.05 1345.43 118.05 1345.43 103.56 1254.54 103.56 1254.54 250.54 1345.43 250.54 1345.43 236.05"/>
      <polygon class="cls-1" points="1522.43 103.56 1506.9 103.56 1507.11 250.54 1596.75 250.54 1596.75 236.05 1522.43 236.05 1522.43 103.56"/>
      <path class="cls-1" d="M1660.51,103.56l-48.24,146.99h15.53l12.63-39.13h60.04l12.63,39.13h15.53l-48.24-146.99h-19.87ZM1644.98,196.92l25.46-79.08,25.46,79.08h-50.93Z"/>
      <path class="cls-1" d="M1840.83,185.85c-4.97-6.69-11.73-10.8-20.29-12.32,6.07-1.38,11.08-5.1,15.01-11.18,3.93-6.07,5.9-13.11,5.9-21.12,0-7.45-1.93-14.01-5.8-19.67-3.87-5.66-9.18-10.07-15.94-13.25-6.76-3.17-14.63-4.76-23.6-4.76h-47.41v146.99h51.76c14.77,0,26.43-3.59,34.99-10.77,8.56-7.17,12.84-16.9,12.84-29.19,0-9.8-2.48-18.04-7.45-24.74ZM1764.23,118.46h34.78c7.73,0,14.08,2.35,19.05,7.04,4.97,4.69,7.45,10.77,7.45,18.22,0,6.76-2.48,12.25-7.45,16.46-4.97,4.21-11.32,6.31-19.05,6.31h-34.78v-48.03ZM1824.88,228.7c-5.25,4.9-12.35,7.35-21.32,7.35h-39.33v-54.86h36.85c9.8,0,17.53,2.45,23.19,7.35,5.66,4.9,8.49,11.63,8.49,20.18s-2.62,15.08-7.87,19.98Z"/>
      <path class="cls-1" d="M477.87,398.04c2.75-2.64,5.69-5.55,8.81-8.76,3.12-3.2,6.14-6.53,9.04-10,2.9-3.46,5.37-6.91,7.4-10.34,2.03-3.43,3.35-6.72,3.96-9.89.98-5.27.56-10.02-1.24-14.24-1.81-4.22-4.65-7.59-8.53-10.11-3.88-2.52-8.53-3.79-13.96-3.79-4.67,0-8.8,1-12.37,2.99-3.58,2-6.37,4.73-8.36,8.19-2,3.47-2.99,7.5-2.99,12.09h8.48c0-4.44,1.37-8,4.12-10.68,2.75-2.67,6.46-4.05,11.13-4.12,3.46-.15,6.44.56,8.93,2.15,2.49,1.58,4.31,3.77,5.48,6.55,1.17,2.79,1.41,5.95.73,9.49-.53,3.16-1.81,6.25-3.84,9.27-2.03,3.01-4.77,6.35-8.19,10-3.43,3.65-7.61,7.89-12.54,12.71-4.94,4.82-10.64,10.62-17.12,17.4v6.1h54.69v-8.48h-40.34c1.73-1.73,3.97-3.92,6.72-6.55Z"/>
      <path class="cls-1" d="M552.62,330.7c-9.12.08-16.14,3.71-21.07,10.9-4.94,7.2-7.4,17.53-7.4,31.02s2.47,23.73,7.4,30.96c4.93,7.23,11.96,10.89,21.07,10.96,8.96.07,15.84-3.5,20.62-10.74,4.78-7.23,7.18-17.63,7.18-31.19s-2.39-23.96-7.18-31.19c-4.78-7.23-11.66-10.81-20.62-10.73ZM566.97,397.82c-3.32,5.88-8.1,8.81-14.35,8.81s-11.34-2.94-14.8-8.81c-3.47-5.88-5.2-14.28-5.2-25.2s1.73-19.42,5.2-25.26c3.46-5.84,8.4-8.76,14.8-8.76s11.04,2.92,14.35,8.76c3.31,5.84,4.97,14.26,4.97,25.26s-1.66,19.32-4.97,25.2Z"/>
      <rect class="cls-1" x="547.31" y="368.89" width="9.94" height="10.06"/>
      <path class="cls-1" d="M613.47,398.04c2.75-2.64,5.69-5.55,8.81-8.76,3.12-3.2,6.14-6.53,9.04-10,2.9-3.46,5.37-6.91,7.4-10.34,2.03-3.43,3.35-6.72,3.96-9.89.98-5.27.56-10.02-1.24-14.24-1.81-4.22-4.65-7.59-8.53-10.11-3.88-2.52-8.53-3.79-13.96-3.79-4.67,0-8.8,1-12.37,2.99-3.58,2-6.37,4.73-8.36,8.19-2,3.47-2.99,7.5-2.99,12.09h8.48c0-4.44,1.37-8,4.12-10.68,2.75-2.67,6.46-4.05,11.13-4.12,3.46-.15,6.44.56,8.93,2.15,2.49,1.58,4.31,3.77,5.48,6.55,1.17,2.79,1.41,5.95.73,9.49-.53,3.16-1.81,6.25-3.84,9.27-2.03,3.01-4.77,6.35-8.19,10-3.43,3.65-7.61,7.89-12.54,12.71-4.94,4.82-10.64,10.62-17.12,17.4v6.1h54.69v-8.48h-40.34c1.73-1.73,3.97-3.92,6.72-6.55Z"/>
      <path class="cls-1" d="M703.7,332.84h-13.22l-32.88,54.35v7.91h37.63v17.97h8.48v-17.97h14.58v-7.91h-14.58v-54.35ZM695.22,387.2h-27.91l27.91-47.01v47.01Z"/>
      <rect class="cls-1" x="737.14" y="378.04" width="36.72" height="7.34"/>
      <polygon class="cls-1" points="830.14 332.84 821.67 332.84 798.84 356.57 804.38 361.55 821.67 343.35 821.67 405.16 798.5 405.16 798.5 413.07 848.9 413.07 848.9 405.16 830.14 405.16 830.14 332.84"/>
      <path class="cls-1" d="M981.84,369.79c3.12-3.69,4.69-8.63,4.69-14.8,0-7.16-1.94-12.64-5.82-16.44-3.88-3.8-9.4-5.71-16.55-5.71h-30.28v80.23h8.47v-36.39h15.37l20.11,36.39h10.85l-20.23-36.61c5.8-.75,10.26-2.98,13.39-6.67ZM942.35,368.78v-28.02h21.81c4.44,0,7.87,1.23,10.28,3.67,2.41,2.45,3.62,5.97,3.62,10.57.15,4.45-.98,7.85-3.39,10.23-2.41,2.37-5.92,3.56-10.51,3.56h-21.81Z"/>
      <polygon class="cls-1" points="1003.25 413.07 1052.86 413.07 1052.86 405.16 1011.73 405.16 1011.73 375.11 1050.94 375.11 1050.94 366.63 1011.73 366.63 1011.73 340.75 1052.86 340.75 1052.86 332.84 1003.25 332.84 1003.25 413.07"/>
      <path class="cls-1" d="M1095.12,338.61c10.77,0,16.99,6.78,18.65,20.34h8.48c-2.49-18.83-11.41-28.25-26.78-28.25-9.34,0-16.54,3.65-21.58,10.96-5.05,7.31-7.57,17.7-7.57,31.19s2.56,23.77,7.68,31.08c5.12,7.31,12.39,11,21.81,11.07,15.07.07,23.77-9.3,26.1-28.14h-8.47c-1.88,13.49-7.76,20.23-17.63,20.23-6.55,0-11.6-2.98-15.14-8.93-3.54-5.95-5.31-14.39-5.31-25.31s1.71-19.45,5.14-25.37c3.43-5.91,8.31-8.87,14.63-8.87Z"/>
      <path class="cls-1" d="M1185.24,369.79c3.12-3.69,4.69-8.63,4.69-14.8,0-7.16-1.94-12.64-5.82-16.44-3.88-3.8-9.4-5.71-16.55-5.71h-30.28v80.23h8.47v-36.39h15.37l20.11,36.39h10.85l-20.23-36.61c5.8-.75,10.26-2.98,13.39-6.67ZM1145.75,368.78v-28.02h21.81c4.44,0,7.87,1.23,10.28,3.67,2.41,2.45,3.62,5.97,3.62,10.57.15,4.45-.98,7.85-3.39,10.23-2.41,2.37-5.92,3.56-10.51,3.56h-21.81Z"/>
      <path class="cls-1" d="M1244.39,405.16l-19.1-.11c-4.6,0-8.25-1.13-10.96-3.39-2.71-2.26-4.07-5.35-4.07-9.27l.11-59.55h-8.48v23.73l-.11,37.06c0,3.77.94,7.12,2.83,10.06,1.88,2.94,4.46,5.24,7.74,6.89,3.28,1.66,7.06,2.49,11.36,2.49h29.15l.11-80.23h-8.47l-.11,72.32Z"/>
      <polygon class="cls-1" points="1270.83 340.75 1293.43 340.75 1293.43 405.16 1270.83 405.16 1270.83 413.07 1325.3 413.07 1325.3 405.16 1301.91 405.16 1301.91 340.75 1325.3 340.75 1325.3 332.84 1270.83 332.84 1270.83 340.75"/>
      <polygon class="cls-1" points="1334.9 340.75 1360.89 340.75 1360.89 413.07 1370.05 413.07 1370.05 340.75 1396.71 340.75 1396.71 332.84 1334.9 332.84 1334.9 340.75"/>
      <path class="cls-1" d="M520.56,2.59h-2.16c-.45,0-.67.22-.67.67v15.07h-18.19V3.26c0-.45-.22-.67-.67-.67h-2.16c-.45,0-.67.22-.67.67v34.27c0,.45.22.67.67.67h2.16c.45,0,.67-.22.67-.67v-16.18h18.19v16.18c0,.45.22.67.67.67h2.16c.45,0,.67-.22.67-.67V3.26c0-.45-.22-.67-.67-.67Z"/>
      <path class="cls-1" d="M531.36,34.75c1.12,1.34,2.46,2.38,4.03,3.12,1.57.74,3.34,1.1,5.33,1.1s3.75-.37,5.3-1.1c1.55-.74,2.89-1.78,4.01-3.12.9-1.22,1.62-2.63,2.16-4.25.54-1.62.82-3.37.82-5.26,0-3.81-.99-6.98-2.98-9.5-1.12-1.41-2.45-2.46-3.98-3.14-1.54-.69-3.31-1.03-5.33-1.03-4,0-7.12,1.39-9.36,4.18-1.95,2.46-2.93,5.63-2.93,9.5,0,1.89.26,3.64.79,5.26.53,1.62,1.24,3.03,2.14,4.25ZM532.54,21.02c.4-1.31.97-2.48,1.7-3.5.83-.99,1.78-1.75,2.86-2.28,1.07-.53,2.28-.79,3.62-.79,2.66,0,4.82,1.02,6.48,3.07.7,1.02,1.26,2.19,1.66,3.5.4,1.31.6,2.72.6,4.22s-.2,2.96-.6,4.27c-.4,1.31-.95,2.46-1.66,3.46-.83.99-1.78,1.76-2.86,2.3-1.07.54-2.28.82-3.62.82-2.62,0-4.78-1.04-6.48-3.12-.74-.99-1.3-2.14-1.7-3.46-.4-1.31-.6-2.74-.6-4.27s.2-2.91.6-4.22Z"/>
      <path class="cls-1" d="M559.54,18.34v19.2c0,.45.22.67.67.67h1.92c.45,0,.67-.22.67-.67v-15.02c0-2.59.68-4.61,2.04-6.05,1.36-1.44,3.34-2.16,5.93-2.16,1.92,0,3.41.62,4.46,1.85,1.06,1.23,1.58,3.32,1.58,6.26v15.12c0,.45.22.67.67.67h1.92c.45,0,.67-.22.67-.67v-15.89c0-3.2-.77-5.68-2.3-7.44-1.54-1.76-3.82-2.64-6.86-2.64-2.21,0-3.94.32-5.21.96-1.26.64-2.34,1.65-3.24,3.02v-2.64c0-.45-.22-.67-.67-.67h-1.73c-.19,0-.36.06-.5.17-.14.11-.2.28-.17.5.06.7.1,1.44.12,2.21.02.77.02,1.84.02,3.22Z"/>
      <path class="cls-1" d="M597.17,45.65c1.98,0,3.74-.31,5.28-.94s2.82-1.52,3.86-2.69c1.04-1.17,1.82-2.59,2.35-4.27.53-1.68.79-3.56.79-5.64V12.91c0-.45-.22-.67-.67-.67h-1.82c-.45,0-.67.22-.67.67l.1,2.59c-1.34-1.44-2.66-2.44-3.96-3-1.3-.56-2.79-.84-4.49-.84-1.95,0-3.62.3-4.99.91-1.38.61-2.5,1.49-3.36,2.64-.86,1.15-1.5,2.57-1.9,4.25-.4,1.68-.6,3.59-.6,5.74,0,1.82.29,3.49.86,4.99.58,1.5,1.36,2.78,2.35,3.84.99,1.06,2.16,1.87,3.5,2.45,1.34.58,2.8.86,4.37.86,1.76,0,3.36-.37,4.8-1.1,1.44-.74,2.53-1.82,3.26-3.26-.19,3.07-1.02,5.5-2.47,7.27-1.46,1.78-3.64,2.66-6.55,2.66-1.31,0-2.53-.12-3.65-.36-1.12-.24-2.29-.63-3.5-1.18-.42-.22-.62-.13-.62.29l-.14,2.11c-.06.38.1.62.48.72,1.31.42,2.51.71,3.6.89,1.09.18,2.35.26,3.79.26ZM605.67,28.9c-.42,1.15-.98,2.15-1.7,3-.72.85-1.58,1.5-2.57,1.97-.99.46-2.05.7-3.17.7s-2.1-.23-3.02-.7c-.93-.46-1.73-1.1-2.4-1.92-.67-.82-1.2-1.8-1.58-2.95-.38-1.15-.58-2.42-.58-3.79,0-3.74.66-6.48,1.97-8.21,1.31-1.73,3.26-2.59,5.86-2.59,2.4,0,4.3.93,5.71,2.78,1.41,1.86,2.11,4.5,2.11,7.92,0,1.38-.21,2.64-.62,3.79Z"/>
      <rect class="cls-1" x="617.67" y="12.24" width="3.46" height="25.97" rx=".67" ry=".67"/>
      <path class="cls-1" d="M619.35,5.47c.64,0,1.19-.22,1.66-.67.46-.45.7-.99.7-1.63s-.23-1.19-.7-1.66c-.46-.46-1.02-.7-1.66-.7s-1.18.23-1.63.7c-.45.46-.67,1.02-.67,1.66s.22,1.18.67,1.63c.45.45.99.67,1.63.67Z"/>
      <path class="cls-1" d="M630,38.21h1.92c.45,0,.67-.22.67-.67v-7.82l3.22-3.6,8.64,11.42c.16.26.37.43.62.53.26.1.54.14.86.14h2.06c.19,0,.3-.07.34-.22.03-.14,0-.3-.1-.46l-10.37-13.73,9.74-10.9c.16-.16.21-.31.14-.46-.06-.14-.19-.22-.38-.22h-2.26c-.61,0-1.14.22-1.58.67l-10.94,12.77V.67c0-.45-.22-.67-.67-.67h-1.92c-.45,0-.67.22-.67.67v36.86c0,.45.22.67.67.67Z"/>
      <path class="cls-1" d="M676.7,38.98c2.11,0,3.86-.42,5.26-1.27,1.39-.85,2.5-2.23,3.34-4.15v3.98c0,.45.22.67.67.67h1.73c.45,0,.67-.22.67-.67-.03-.83-.06-1.66-.07-2.5-.02-.83-.02-1.78-.02-2.83V12.91c0-.45-.22-.67-.67-.67h-1.92c-.45,0-.67.22-.67.67v13.34c.03,1.34-.13,2.62-.48,3.84-.35,1.22-.86,2.28-1.54,3.19s-1.5,1.63-2.47,2.16c-.98.53-2.07.79-3.29.79-4.16,0-6.24-2.72-6.24-8.16v-15.17c0-.45-.22-.67-.67-.67h-1.92c-.45,0-.67.22-.67.67v16.03c0,6.69,2.99,10.03,8.98,10.03Z"/>
      <path class="cls-1" d="M696.82,18.34v19.2c0,.45.22.67.67.67h1.92c.45,0,.67-.22.67-.67v-15.02c0-2.59.68-4.61,2.04-6.05,1.36-1.44,3.34-2.16,5.93-2.16,1.92,0,3.41.62,4.46,1.85,1.06,1.23,1.58,3.32,1.58,6.26v15.12c0,.45.22.67.67.67h1.92c.45,0,.67-.22.67-.67v-15.89c0-3.2-.77-5.68-2.3-7.44-1.54-1.76-3.82-2.64-6.86-2.64-2.21,0-3.94.32-5.21.96-1.26.64-2.34,1.65-3.24,3.02v-2.64c0-.45-.22-.67-.67-.67h-1.73c-.19,0-.36.06-.5.17-.14.11-.2.28-.17.5.06.7.1,1.44.12,2.21.02.77.02,1.84.02,3.22Z"/>
      <path class="cls-1" d="M727.54.82c-.64,0-1.18.23-1.63.7-.45.46-.67,1.02-.67,1.66s.22,1.18.67,1.63c.45.45.99.67,1.63.67s1.19-.22,1.66-.67c.46-.45.7-.99.7-1.63s-.23-1.19-.7-1.66c-.46-.46-1.02-.7-1.66-.7Z"/>
      <rect class="cls-1" x="725.86" y="12.24" width="3.46" height="25.97" rx=".67" ry=".67"/>
      <path class="cls-1" d="M743.57,38.21h2.35c.48,0,.8-.21.96-.62l8.78-24.67c.06-.16.05-.31-.05-.46-.1-.14-.24-.22-.43-.22h-2.11c-.19,0-.37.06-.53.19-.16.13-.27.29-.34.48l-7.39,21.98-7.1-21.98c-.19-.45-.48-.67-.86-.67h-2.16c-.19,0-.34.07-.43.22-.1.14-.11.3-.05.46l8.45,24.67c.13.42.43.62.91.62Z"/>
      <path class="cls-1" d="M763.87,40.46c.67,0,1.24-.23,1.7-.7.46-.46.7-1.03.7-1.7s-.23-1.24-.7-1.7c-.46-.46-1.03-.7-1.7-.7s-1.24.23-1.7.7c-.46.46-.7,1.03-.7,1.7s.23,1.24.7,1.7,1.03.7,1.7.7Z"/>
      <rect class="cls-1" x="788.64" y="2.69" width="3.65" height="35.52" rx=".67" ry=".67"/>
      <path class="cls-1" d="M800.35,18.34v19.2c0,.45.22.67.67.67h1.92c.45,0,.67-.22.67-.67v-15.02c0-2.59.68-4.61,2.04-6.05,1.36-1.44,3.34-2.16,5.93-2.16,1.92,0,3.41.62,4.46,1.85,1.06,1.23,1.58,3.32,1.58,6.26v15.12c0,.45.22.67.67.67h1.92c.45,0,.67-.22.67-.67v-15.89c0-3.2-.77-5.68-2.3-7.44-1.54-1.76-3.82-2.64-6.86-2.64-2.21,0-3.94.32-5.21.96-1.26.64-2.34,1.65-3.24,3.02v-2.64c0-.45-.22-.67-.67-.67h-1.73c-.19,0-.36.06-.5.17-.14.11-.2.28-.17.5.06.7.1,1.44.12,2.21.02.77.02,1.84.02,3.22Z"/>
      <path class="cls-1" d="M827.08,15.02h4.51v15.31c0,2.91.27,4.94.82,6.1.83,1.7,2.54,2.54,5.14,2.54,1.31,0,2.64-.24,3.98-.72.45-.19.64-.51.58-.96l-.1-1.25c0-.19-.07-.32-.22-.38-.14-.06-.3-.06-.46,0-1.12.38-2.13.58-3.02.58-2.3,0-3.46-1.42-3.46-4.27V15.02h5.33c.45,0,.67-.22.67-.67v-1.44c0-.45-.22-.67-.67-.67h-5.33v-6.48c0-.48-.21-.72-.62-.72h-2.02c-.42,0-.62.24-.62.72v6.48h-4.51c-.45,0-.67.22-.67.67v1.44c0,.45.22.67.67.67Z"/>
      <path class="cls-1" d="M860.64,12.53c-1.31-.64-2.86-.96-4.66-.96-3.23,0-5.9,1.26-8.02,3.79-2.02,2.5-3.02,5.78-3.02,9.84,0,4.61,1.01,8.06,3.02,10.34s4.99,3.43,8.93,3.43c1.34,0,2.59-.1,3.74-.31,1.15-.21,2.26-.52,3.31-.94.35-.16.53-.38.53-.67v-2.16c0-.42-.21-.53-.62-.34-.96.54-2,.94-3.12,1.18-1.12.24-2.32.36-3.6.36s-2.5-.22-3.58-.67c-1.07-.45-1.99-1.09-2.76-1.92-.77-.83-1.35-1.86-1.75-3.1-.4-1.23-.58-2.65-.55-4.25h16.22c.45,0,.79,0,1.03-.02.24-.02.41-.07.5-.17.1-.1.15-.26.17-.48.02-.22.02-.54.02-.96,0-3.81-.82-6.85-2.45-9.12-.93-1.28-2.05-2.24-3.36-2.88ZM848.49,23.42c.03-1.06.24-2.14.62-3.26.38-1.12.86-2.11,1.44-2.98,1.44-1.92,3.31-2.88,5.62-2.88s3.95.94,5.14,2.83c.54.83.94,1.76,1.2,2.78.26,1.02.38,2.19.38,3.5h-14.4Z"/>
      <path class="cls-1" d="M873.07,18.05v19.49c0,.45.22.67.67.67h1.87c.45,0,.67-.22.67-.67v-12.14c0-2.85.45-5.18,1.34-7.01,1.15-2.34,2.91-3.5,5.28-3.5.96,0,1.73.1,2.3.29.16.06.32.06.48,0,.16-.06.24-.19.24-.38v-2.02c0-.26-.07-.46-.22-.6s-.31-.25-.5-.31c-.74-.19-1.47-.29-2.21-.29-3.04,0-5.34,2.02-6.91,6.05v-4.7c0-.45-.22-.67-.67-.67h-1.78c-.45,0-.67.22-.67.67.03.83.06,1.61.07,2.33.02.72.02,1.66.02,2.81Z"/>
      <path class="cls-1" d="M889.96,36.14c1.5,1.89,3.87,2.83,7.1,2.83,1.86,0,3.58-.45,5.16-1.34,1.58-.9,2.71-2.16,3.38-3.79v3.7c0,.45.22.67.67.67h1.73c.45,0,.67-.22.67-.67-.06-.7-.11-1.43-.14-2.18-.03-.75-.05-1.61-.05-2.57v-12.05c0-3.07-.74-5.37-2.21-6.89-1.47-1.52-3.81-2.28-7.01-2.28-1.5,0-2.89.12-4.15.36-1.26.24-2.46.66-3.58,1.27-.45.22-.67.56-.67,1.01v1.82c0,.16.07.26.22.31.14.05.3.02.46-.07,1.15-.7,2.37-1.21,3.65-1.51,1.28-.3,2.64-.46,4.08-.46,2.14,0,3.67.53,4.58,1.58.91,1.06,1.37,2.59,1.37,4.61v1.44h-.62c-4.77,0-8.3.42-10.61,1.25-1.89.7-3.29,1.76-4.2,3.17-.91,1.41-1.37,3.09-1.37,5.04,0,.83.13,1.67.38,2.52.26.85.64,1.59,1.15,2.23ZM893.04,27.86c.67-.94,1.68-1.66,3.02-2.14.93-.35,2.09-.63,3.48-.84,1.39-.21,2.98-.28,4.78-.22h.91v1.63c0,1.6-.19,3.02-.58,4.25-.38,1.23-.93,2.26-1.63,3.1-.7.83-1.53,1.47-2.47,1.92-.94.45-1.98.67-3.1.67-1.6,0-2.88-.38-3.84-1.15-.54-.38-.94-.92-1.2-1.61-.26-.69-.38-1.43-.38-2.23,0-1.31.34-2.44,1.01-3.38Z"/>
      <path class="cls-1" d="M918.02,34.9c1.07,1.22,2.38,2.18,3.94,2.88,1.55.7,3.32,1.06,5.3,1.06,1.25,0,2.32-.03,3.22-.1.9-.06,1.82-.18,2.78-.34.48-.1.7-.38.67-.86l-.14-1.78c-.03-.35-.29-.46-.77-.34-.93.26-1.76.43-2.5.53-.74.1-1.66.14-2.78.14-1.5,0-2.84-.3-4.01-.89-1.17-.59-2.16-1.39-2.98-2.4-.82-1.01-1.44-2.17-1.87-3.48-.43-1.31-.65-2.69-.65-4.13,0-1.57.21-3.02.62-4.34.42-1.33,1.04-2.47,1.87-3.43.83-.96,1.86-1.7,3.1-2.23,1.23-.53,2.66-.79,4.3-.79.93,0,1.78.06,2.54.17.77.11,1.57.3,2.4.55.42.1.66-.05.72-.43l.14-1.54c.03-.48-.18-.78-.62-.91-.99-.22-1.92-.38-2.78-.46-.86-.08-1.82-.12-2.88-.12-1.98,0-3.77.34-5.35,1.03-1.58.69-2.94,1.63-4.08,2.83-1.14,1.2-2.01,2.62-2.62,4.27-.61,1.65-.91,3.45-.91,5.4s.29,3.71.86,5.38c.58,1.66,1.4,3.1,2.47,4.32Z"/>
      <path class="cls-1" d="M937.48,15.02h4.51v15.31c0,2.91.27,4.94.82,6.1.83,1.7,2.54,2.54,5.14,2.54,1.31,0,2.64-.24,3.98-.72.45-.19.64-.51.58-.96l-.1-1.25c0-.19-.07-.32-.22-.38-.14-.06-.3-.06-.46,0-1.12.38-2.13.58-3.02.58-2.3,0-3.46-1.42-3.46-4.27V15.02h5.33c.45,0,.67-.22.67-.67v-1.44c0-.45-.22-.67-.67-.67h-5.33v-6.48c0-.48-.21-.72-.62-.72h-2.02c-.42,0-.62.24-.62.72v6.48h-4.51c-.45,0-.67.22-.67.67v1.44c0,.45.22.67.67.67Z"/>
      <path class="cls-1" d="M958.89,5.47c.64,0,1.19-.22,1.66-.67.46-.45.7-.99.7-1.63s-.23-1.19-.7-1.66c-.46-.46-1.02-.7-1.66-.7s-1.18.23-1.63.7c-.45.46-.67,1.02-.67,1.66s.22,1.18.67,1.63c.45.45.99.67,1.63.67Z"/>
      <rect class="cls-1" x="957.21" y="12.24" width="3.46" height="25.97" rx=".67" ry=".67"/>
      <path class="cls-1" d="M974.01,37.58c.13.42.43.62.91.62h2.35c.48,0,.8-.21.96-.62l8.78-24.67c.06-.16.05-.31-.05-.46-.1-.14-.24-.22-.43-.22h-2.11c-.19,0-.37.06-.53.19-.16.13-.27.29-.34.48l-7.39,21.98-7.1-21.98c-.19-.45-.48-.67-.86-.67h-2.16c-.19,0-.34.07-.43.22-.1.14-.11.3-.05.46l8.45,24.67Z"/>
      <path class="cls-1" d="M1009.19,37.73c.35-.16.53-.38.53-.67v-2.16c0-.42-.21-.53-.62-.34-.96.54-2,.94-3.12,1.18-1.12.24-2.32.36-3.6.36s-2.5-.22-3.58-.67c-1.07-.45-1.99-1.09-2.76-1.92-.77-.83-1.35-1.86-1.75-3.1-.4-1.23-.58-2.65-.55-4.25h16.22c.45,0,.79,0,1.03-.02.24-.02.41-.07.5-.17.1-.1.15-.26.17-.48.02-.22.02-.54.02-.96,0-3.81-.82-6.85-2.45-9.12-.93-1.28-2.05-2.24-3.36-2.88-1.31-.64-2.86-.96-4.66-.96-3.23,0-5.9,1.26-8.02,3.79-2.02,2.5-3.02,5.78-3.02,9.84,0,4.61,1.01,8.06,3.02,10.34s4.99,3.43,8.93,3.43c1.34,0,2.59-.1,3.74-.31,1.15-.21,2.26-.52,3.31-.94ZM994.36,20.16c.38-1.12.86-2.11,1.44-2.98,1.44-1.92,3.31-2.88,5.62-2.88s3.95.94,5.14,2.83c.54.83.94,1.76,1.2,2.78.26,1.02.38,2.19.38,3.5h-14.4c.03-1.06.24-2.14.62-3.26Z"/>
      <path class="cls-1" d="M1031.75,18.34v19.2c0,.45.22.67.67.67h1.87c.45,0,.67-.22.67-.67v-15.46c0-2.3.62-4.16,1.87-5.57,1.25-1.41,2.96-2.11,5.14-2.11,3.71,0,5.57,2.19,5.57,6.58v16.56c0,.45.22.67.67.67h1.92c.45,0,.67-.22.67-.67v-13.68c-.03-1.28.1-2.5.41-3.65.3-1.15.77-2.16,1.39-3.02.62-.86,1.38-1.54,2.26-2.04.88-.5,1.88-.74,3-.74,3.68,0,5.52,2.19,5.52,6.58v16.61c0,.42.22.62.67.62h1.82c.45,0,.67-.22.67-.67v-17.23c0-1.18-.19-2.3-.58-3.36-.38-1.06-.94-1.98-1.66-2.76-.72-.78-1.58-1.4-2.59-1.85-1.01-.45-2.14-.67-3.38-.67-1.95,0-3.67.47-5.16,1.42-1.49.94-2.57,2.33-3.24,4.15-.32-1.82-1.2-3.21-2.64-4.15-1.44-.94-3.12-1.42-5.04-1.42s-3.36.34-4.61,1.03c-1.25.69-2.24,1.62-2.98,2.81v-2.59c0-.45-.22-.67-.67-.67h-1.78c-.45,0-.67.22-.67.67.06.7.11,1.45.14,2.23.03.78.05,1.85.05,3.19Z"/>
      <path class="cls-1" d="M1085.32,38.98c1.34,0,2.59-.1,3.74-.31,1.15-.21,2.26-.52,3.31-.94.35-.16.53-.38.53-.67v-2.16c0-.42-.21-.53-.62-.34-.96.54-2,.94-3.12,1.18-1.12.24-2.32.36-3.6.36s-2.5-.22-3.58-.67c-1.07-.45-1.99-1.09-2.76-1.92-.77-.83-1.35-1.86-1.75-3.1-.4-1.23-.58-2.65-.55-4.25h16.22c.45,0,.79,0,1.03-.02.24-.02.41-.07.5-.17.1-.1.15-.26.17-.48.02-.22.02-.54.02-.96,0-3.81-.82-6.85-2.45-9.12-.93-1.28-2.05-2.24-3.36-2.88-1.31-.64-2.86-.96-4.66-.96-3.23,0-5.9,1.26-8.02,3.79-2.02,2.5-3.02,5.78-3.02,9.84,0,4.61,1.01,8.06,3.02,10.34s4.99,3.43,8.93,3.43ZM1077.55,20.16c.38-1.12.86-2.11,1.44-2.98,1.44-1.92,3.31-2.88,5.62-2.88s3.95.94,5.14,2.83c.54.83.94,1.76,1.2,2.78.26,1.02.38,2.19.38,3.5h-14.4c.03-1.06.24-2.14.62-3.26Z"/>
      <path class="cls-1" d="M1110.67,38.83c3.84,0,6.62-1.63,8.35-4.9v3.6c0,.45.22.67.67.67h1.87c.45,0,.67-.22.67-.67V.72c0-.45-.22-.67-.67-.67h-1.87c-.45,0-.67.22-.67.67v15.12c-.67-1.22-1.75-2.21-3.24-2.98-1.49-.77-3.19-1.15-5.11-1.15-7.1,0-10.66,4.5-10.66,13.49,0,4.03.88,7.26,2.64,9.7,1.92,2.62,4.59,3.94,8.02,3.94ZM1103.92,21.19c.24-1.23.62-2.31,1.13-3.24,1.41-2.34,3.47-3.5,6.19-3.5,1.28,0,2.4.27,3.36.82.96.54,1.77,1.3,2.42,2.26.66.96,1.15,2.1,1.49,3.41.34,1.31.5,2.74.5,4.27,0,1.25-.16,2.52-.48,3.82s-.81,2.46-1.46,3.5c-.66,1.04-1.47,1.9-2.45,2.57-.98.67-2.1,1.01-3.38,1.01-1.41,0-2.62-.3-3.62-.91-1.01-.61-1.86-1.49-2.57-2.64-.51-.93-.89-2.01-1.13-3.24-.24-1.23-.36-2.6-.36-4.1s.12-2.78.36-4.01Z"/>
      <path class="cls-1" d="M1132.17,5.47c.64,0,1.19-.22,1.66-.67.46-.45.7-.99.7-1.63s-.23-1.19-.7-1.66c-.46-.46-1.02-.7-1.66-.7s-1.18.23-1.63.7c-.45.46-.67,1.02-.67,1.66s.22,1.18.67,1.63c.45.45.99.67,1.63.67Z"/>
      <rect class="cls-1" x="1130.49" y="12.24" width="3.46" height="25.97" rx=".67" ry=".67"/>
      <path class="cls-1" d="M1141.67,36.14c1.5,1.89,3.87,2.83,7.1,2.83,1.86,0,3.58-.45,5.16-1.34,1.58-.9,2.71-2.16,3.38-3.79v3.7c0,.45.22.67.67.67h1.73c.45,0,.67-.22.67-.67-.06-.7-.11-1.43-.14-2.18-.03-.75-.05-1.61-.05-2.57v-12.05c0-3.07-.74-5.37-2.21-6.89-1.47-1.52-3.81-2.28-7.01-2.28-1.5,0-2.89.12-4.15.36-1.26.24-2.46.66-3.58,1.27-.45.22-.67.56-.67,1.01v1.82c0,.16.07.26.22.31.14.05.3.02.46-.07,1.15-.7,2.37-1.21,3.65-1.51,1.28-.3,2.64-.46,4.08-.46,2.14,0,3.67.53,4.58,1.58.91,1.06,1.37,2.59,1.37,4.61v1.44h-.62c-4.77,0-8.3.42-10.61,1.25-1.89.7-3.29,1.76-4.2,3.17-.91,1.41-1.37,3.09-1.37,5.04,0,.83.13,1.67.38,2.52.26.85.64,1.59,1.15,2.23ZM1144.74,27.86c.67-.94,1.68-1.66,3.02-2.14.93-.35,2.09-.63,3.48-.84,1.39-.21,2.98-.28,4.78-.22h.91v1.63c0,1.6-.19,3.02-.58,4.25-.38,1.23-.93,2.26-1.63,3.1-.7.83-1.53,1.47-2.47,1.92-.94.45-1.98.67-3.1.67-1.6,0-2.88-.38-3.84-1.15-.54-.38-.94-.92-1.2-1.61-.26-.69-.38-1.43-.38-2.23,0-1.31.34-2.44,1.01-3.38Z"/>
      <path class="cls-1" d="M1181.27,36.14c1.5,1.89,3.87,2.83,7.1,2.83,1.86,0,3.58-.45,5.16-1.34,1.58-.9,2.71-2.16,3.38-3.79v3.7c0,.45.22.67.67.67h1.73c.45,0,.67-.22.67-.67-.06-.7-.11-1.43-.14-2.18-.03-.75-.05-1.61-.05-2.57v-12.05c0-3.07-.74-5.37-2.21-6.89-1.47-1.52-3.81-2.28-7.01-2.28-1.5,0-2.89.12-4.15.36-1.26.24-2.46.66-3.58,1.27-.45.22-.67.56-.67,1.01v1.82c0,.16.07.26.22.31.14.05.3.02.46-.07,1.15-.7,2.37-1.21,3.65-1.51,1.28-.3,2.64-.46,4.08-.46,2.14,0,3.67.53,4.58,1.58.91,1.06,1.37,2.59,1.37,4.61v1.44h-.62c-4.77,0-8.3.42-10.61,1.25-1.89.7-3.29,1.76-4.2,3.17-.91,1.41-1.37,3.09-1.37,5.04,0,.83.13,1.67.38,2.52.26.85.64,1.59,1.15,2.23ZM1184.34,27.86c.67-.94,1.68-1.66,3.02-2.14.93-.35,2.09-.63,3.48-.84,1.39-.21,2.98-.28,4.78-.22h.91v1.63c0,1.6-.19,3.02-.58,4.25-.38,1.23-.93,2.26-1.63,3.1-.7.83-1.53,1.47-2.47,1.92-.94.45-1.98.67-3.1.67-1.6,0-2.88-.38-3.84-1.15-.54-.38-.94-.92-1.2-1.61-.26-.69-.38-1.43-.38-2.23,0-1.31.34-2.44,1.01-3.38Z"/>
      <path class="cls-1" d="M1207.96,18.05v19.49c0,.45.22.67.67.67h1.87c.45,0,.67-.22.67-.67v-12.14c0-2.85.45-5.18,1.34-7.01,1.15-2.34,2.91-3.5,5.28-3.5.96,0,1.73.1,2.3.29.16.06.32.06.48,0,.16-.06.24-.19.24-.38v-2.02c0-.26-.07-.46-.22-.6s-.31-.25-.5-.31c-.74-.19-1.47-.29-2.21-.29-3.04,0-5.34,2.02-6.91,6.05v-4.7c0-.45-.22-.67-.67-.67h-1.78c-.45,0-.67.22-.67.67.03.83.06,1.61.07,2.33.02.72.02,1.66.02,2.81Z"/>
      <path class="cls-1" d="M1222.98,15.02h4.51v15.31c0,2.91.27,4.94.82,6.1.83,1.7,2.54,2.54,5.14,2.54,1.31,0,2.64-.24,3.98-.72.45-.19.64-.51.58-.96l-.1-1.25c0-.19-.07-.32-.22-.38-.14-.06-.3-.06-.46,0-1.12.38-2.13.58-3.02.58-2.3,0-3.46-1.42-3.46-4.27V15.02h5.33c.45,0,.67-.22.67-.67v-1.44c0-.45-.22-.67-.67-.67h-5.33v-6.48c0-.48-.21-.72-.62-.72h-2.02c-.42,0-.62.24-.62.72v6.48h-4.51c-.45,0-.67.22-.67.67v1.44c0,.45.22.67.67.67Z"/>
      <path class="cls-1" d="M1257.62,34.9c1.07,1.22,2.38,2.18,3.94,2.88,1.55.7,3.32,1.06,5.3,1.06,1.25,0,2.32-.03,3.22-.1.9-.06,1.82-.18,2.78-.34.48-.1.7-.38.67-.86l-.14-1.78c-.03-.35-.29-.46-.77-.34-.93.26-1.76.43-2.5.53-.74.1-1.66.14-2.78.14-1.5,0-2.84-.3-4.01-.89-1.17-.59-2.16-1.39-2.98-2.4-.82-1.01-1.44-2.17-1.87-3.48-.43-1.31-.65-2.69-.65-4.13,0-1.57.21-3.02.62-4.34.42-1.33,1.04-2.47,1.87-3.43.83-.96,1.86-1.7,3.1-2.23,1.23-.53,2.66-.79,4.3-.79.93,0,1.78.06,2.54.17.77.11,1.57.3,2.4.55.42.1.66-.05.72-.43l.14-1.54c.03-.48-.18-.78-.62-.91-.99-.22-1.92-.38-2.78-.46-.86-.08-1.82-.12-2.88-.12-1.98,0-3.77.34-5.35,1.03-1.58.69-2.94,1.63-4.08,2.83-1.14,1.2-2.01,2.62-2.62,4.27-.61,1.65-.91,3.45-.91,5.4s.29,3.71.86,5.38c.58,1.66,1.4,3.1,2.47,4.32Z"/>
      <path class="cls-1" d="M1279.48,18.05v19.49c0,.45.22.67.67.67h1.87c.45,0,.67-.22.67-.67v-12.14c0-2.85.45-5.18,1.34-7.01,1.15-2.34,2.91-3.5,5.28-3.5.96,0,1.73.1,2.3.29.16.06.32.06.48,0,.16-.06.24-.19.24-.38v-2.02c0-.26-.07-.46-.22-.6s-.31-.25-.5-.31c-.74-.19-1.47-.29-2.21-.29-3.04,0-5.34,2.02-6.91,6.05v-4.7c0-.45-.22-.67-.67-.67h-1.78c-.45,0-.67.22-.67.67.03.83.06,1.61.07,2.33.02.72.02,1.66.02,2.81Z"/>
      <path class="cls-1" d="M1306.89,38.98c1.34,0,2.59-.1,3.74-.31,1.15-.21,2.26-.52,3.31-.94.35-.16.53-.38.53-.67v-2.16c0-.42-.21-.53-.62-.34-.96.54-2,.94-3.12,1.18-1.12.24-2.32.36-3.6.36s-2.5-.22-3.58-.67c-1.07-.45-1.99-1.09-2.76-1.92-.77-.83-1.35-1.86-1.75-3.1-.4-1.23-.58-2.65-.55-4.25h16.22c.45,0,.79,0,1.03-.02.24-.02.41-.07.5-.17.1-.1.15-.26.17-.48.02-.22.02-.54.02-.96,0-3.81-.82-6.85-2.45-9.12-.93-1.28-2.05-2.24-3.36-2.88-1.31-.64-2.86-.96-4.66-.96-3.23,0-5.9,1.26-8.02,3.79-2.02,2.5-3.02,5.78-3.02,9.84,0,4.61,1.01,8.06,3.02,10.34s4.99,3.43,8.93,3.43ZM1299.11,20.16c.38-1.12.86-2.11,1.44-2.98,1.44-1.92,3.31-2.88,5.62-2.88s3.95.94,5.14,2.83c.54.83.94,1.76,1.2,2.78.26,1.02.38,2.19.38,3.5h-14.4c.03-1.06.24-2.14.62-3.26Z"/>
      <path class="cls-1" d="M1327.53,37.63c.06.26.17.42.31.48.14.06.33.1.55.1h2.64c.48,0,.77-.19.86-.58,1.18-3.68,2.37-7.34,3.55-10.99,1.18-3.65,2.37-7.33,3.55-11.04l6.82,22.08c.13.35.38.53.77.53h2.83c.42,0,.67-.18.77-.53l8.16-24.77c.06-.16.05-.31-.05-.46-.1-.14-.24-.22-.43-.22h-1.92c-.19,0-.37.06-.53.19-.16.13-.27.29-.34.48-1.22,3.78-2.39,7.42-3.53,10.94-1.14,3.52-2.31,7.17-3.53,10.94l-6.67-21.65c-.16-.61-.54-.91-1.15-.91h-2.26c-.58,0-.94.3-1.1.91-1.18,3.68-2.34,7.29-3.48,10.82-1.14,3.54-2.3,7.14-3.48,10.82l-6.82-21.89c-.19-.45-.48-.67-.86-.67h-2.21c-.19,0-.34.07-.43.22-.1.14-.11.3-.05.46l8.02,24.72Z"/>
    </g>
  </g>
</svg>