<?xml version="1.0" encoding="UTF-8"?>
<svg id="_레이어_2" data-name="레이어_2" xmlns="http://www.w3.org/2000/svg" viewBox="0 0 974.23 468.05">
  <defs>
    <style>
      .cls-1 {
        stroke: #6556ff;
        stroke-width: .92px;
      }

      .cls-1, .cls-2, .cls-3, .cls-4, .cls-5, .cls-6 {
        stroke-miterlimit: 10;
      }

      .cls-1, .cls-5, .cls-7 {
        fill: #fff;
      }

      .cls-8 {
        fill: #001fff;
      }

      .cls-9 {
        fill: #6556ff;
      }

      .cls-2 {
        stroke-width: .66px;
      }

      .cls-2, .cls-3, .cls-4, .cls-6 {
        fill: none;
        stroke: #001fff;
      }

      .cls-3 {
        stroke-width: .74px;
      }

      .cls-4 {
        stroke-width: .71px;
      }

      .cls-5 {
        stroke: #1800ff;
      }
    </style>
  </defs>
  <g id="_오소랩_로고" data-name="오소랩_로고">
    <g id="_오소랩_로고-2" data-name="오소랩_로고">
      <path class="cls-8" d="M955.85,319.5c-5.18,26.32-38.53,38.9-61.33,46.07-15.4,4.58-31.17,7.87-47.05,10.31-84.88,12.23-171.26,7.8-256.3-.58-159.98-17.5-384.91-62.94-521.46-148.04-22.95-15.24-60.33-42.99-55.49-73.8,7.39-38.25,76.24-51.35,108.94-56.5,191.04-25.54,450.03,19.31,632.17,81.92,49.45,17.04,209.86,78.31,200.52,140.62h0ZM955.68,319.47c9.16-62.23-151.82-123.11-200.64-139.77-180.37-61.4-442.63-106.46-631.65-81.23-32.44,5.06-100.48,17.97-107.82,55.23-5.94,37.6,54,73.23,82.36,88.91,170.45,89.12,429.22,135.75,621.41,139.43,52.27.7,223.55-1.02,236.34-62.56h0Z"/>
      <g>
        <path class="cls-9" d="M368.36,90.54c26.67,0,39.38,14.57,39.38,41.86,0,34.88-18.3,69.92-59.69,69.92-27.91,0-40-16.43-40-40.78,0-36.75,19.23-71.01,60.31-71.01ZM380.45,112.71c0-11.32-2.64-19.07-13.49-19.07-18.45,0-21.09,16.74-28.06,55.51-2.17,12.56-3.1,23.1-3.1,30.85,0,12.4,2.33,19.07,13.49,19.07,16.9,0,20.78-15.04,27.29-53.34,2.48-14.73,3.88-24.65,3.88-33.02Z"/>
        <path class="cls-9" d="M469.45,92.25c24.34,0,39.07,7.44,39.07,24.81,0,29.92-24.65,39.23-52.71,39.23h-3.41l-7.13,41.55h19.23l-.47,2.95h-55.97l.62-2.95h8.22l17.05-102.64h-8.99l.62-2.95h43.88ZM453.02,153.34h3.72c16.9,0,21.09-25.27,21.09-39.38s-2.79-18.76-13.33-18.76h-2.17l-9.3,58.14Z"/>
        <path class="cls-9" d="M601.4,92.25l-3.72,30.54h-2.33c-3.26-23.57-11.47-27.6-30.39-27.6h-6.82l-8.06,48.37h4.34c9.92,0,18.45-6.51,23.41-20.31h2.17l-7.6,45.89h-2.48c-.15-17.68-7.13-21.55-17.98-21.55h-2.64l-8.37,50.23h5.43c26.82,0,35.35-11.16,43.88-30.7h2.48l-6.82,33.64h-82.33l.46-2.95h8.53l17.05-102.64h-9.15l.47-2.95h80.47Z"/>
        <path class="cls-9" d="M681.25,200.47h-23.57l-30.23-102.95h-.46l-16.43,100.31h9.77l-.31,2.95h-24.65l.46-2.95h10.7l16.9-102.64h-11.01l.62-2.95h41.4l26.51,83.88h.78l13.18-80.93h-10.7l.62-2.95h22.79l-.62,2.95h-8.22l-17.52,105.28Z"/>
        <path class="cls-9" d="M421.23,282.25l-.46,2.95h-14.42l-17.36,102.64h5.58c24.96,0,33.8-10.54,43.57-33.18h2.17l-7.13,36.13h-81.4l.31-2.95h8.53l17.37-102.64h-9.3l.47-2.95h52.09Z"/>
        <path class="cls-9" d="M499.37,354.34h-31.78l-16.75,33.49h12.56l-.31,2.95h-24.96l.31-2.95h8.37l53.34-105.12h18.61l15.19,105.12h9.15l-.31,2.95h-48.37l.31-2.95h8.37l-3.72-33.49ZM469.3,350.93h29.77l-5.74-46.98-24.03,46.98Z"/>
        <path class="cls-9" d="M605.89,282.25c25.89,0,41.4,5.74,41.4,23.72,0,12.71-10.08,24.96-34.57,27.75l-.16.31c20.62,1.24,31.16,8.53,31.16,21.4,0,27.91-28.68,35.35-55.82,35.35h-41.55l.78-2.95h8.22l17.06-102.64h-9.3l.46-2.95h42.33ZM583.72,387.83h3.26c14.42,0,25.27-13.02,25.27-32.71,0-13.49-4.81-19.23-16.59-19.23h-3.1l-8.84,51.94ZM593.18,332.95h.47c12.71,0,23.72-7.91,23.72-30.39,0-11.32-5.12-17.37-15.35-17.37h-1.24l-7.6,47.75Z"/>
      </g>
      <g>
        <path class="cls-5" d="M361.82,144.17c2.39-2.05,4.78-4.1,6.83-6.15,3.08,4.1,4.1,7.52,5.13,9.23,1.03,2.05,3.76,2.73,5.13,2.39.68-.68,1.37-1.71.68-3.42-1.03-2.39-2.39-7.18-6.49-12.3,15.38-15.04,29.05-29.73,40.33-43.06,26.66-31.78,33.83-50.58,33.83-60.83,0-5.13-1.71-7.86-3.76-9.57-6.49-4.44-20.85,2.05-38.96,19.82-18.11,18.11-34.18,45.45-45.79,71.08-1.37,2.39-2.39,5.13-3.76,8.2-16.06-8.54-38.62-13.33-62.88-13.33s-49.9,4.44-73.82,14.01c-55.02,21.19-78.6,59.12-78.6,83.73,0,4.1.68,8.2,2.05,11.28,3.76,8.89,9.57,16.75,19.48,20.85,0,13.67,4.78,26.66,14.7,37.25,15.72,17.09,37.59,25.63,60.83,25.63,18.45,0,37.59-5.47,56.05-16.4,41.35-24.61,55.02-77.24,63.91-116.54,1.37-7.18,3.42-14.35,5.13-21.87ZM394.29,63.17c15.38-22.9,37.25-42.04,44.43-36.57,6.83,5.81-4.78,28.02-29.05,59.46-9.23,11.96-23.58,27.34-40.67,43.4-.68-.68-1.37-1.37-2.39-2.05,7.86-25.63,17.43-49.21,27.68-64.25ZM286.98,244.98c-23.24,23.24-51.26,35.88-74.16,35.88-14.01,0-26.31-4.78-34.52-14.7-6.83-8.2-9.91-17.77-9.91-27.68,3.76,1.02,8.2,1.37,12.99,1.37,13.67,0,31.44-3.76,55.36-12.99,19.14-7.52,38.28-17.43,56.73-29.39-2.39,3.08-4.44,6.15-6.15,8.2-9.91,12.3-27.34,23.92-34.86,28.02-4.1,2.05-5.13,3.76-4.79,5.13.34,1.37,2.05,1.71,3.76,1.02,3.76-1.71,18.8-8.2,34.52-25.29,6.49-7.18,14.01-15.72,19.48-25.29,10.25-6.83,20.16-14.35,29.73-21.87-12.3,27.34-28.02,57.07-48.19,77.58ZM169.07,232c2.39-20.16,16.06-41.35,33.83-57.41,20.16-19.14,53.31-32.47,76.55-32.47,8.89,0,16.4,2.05,21.19,6.49,4.44,4.1,6.49,9.57,6.49,15.04,0,6.83-2.73,14.35-6.49,21.53-9.23,6.49-18.45,12.65-27.68,17.77-32.47,18.8-65.27,30.76-89.88,30.76-5.13,0-9.91-.68-14.01-1.71ZM340.63,155.1c-9.57,7.86-19.48,15.72-29.73,22.9,1.37-3.76,2.39-7.86,2.39-12.3,0-6.15-1.71-12.3-5.81-17.77-7.18-9.57-19.48-14.01-34.17-14.01-20.5,0-45.79,8.89-69.72,27.34-24.61,19.14-39.98,44.43-42.04,68.01-6.49-3.08-11.28-8.2-14.01-15.04-1.37-3.76-2.05-7.18-2.05-10.94,0-30.76,42.04-65.27,74.84-77.92,22.56-8.89,48.53-13.67,72.79-13.67,15.38,0,30.07,2.05,42.72,6.15,6.83,2.05,12.3,4.44,17.09,7.18-3.76,8.54-7.52,18.8-12.3,30.07Z"/>
        <path class="cls-5" d="M827.6,208.76c-1.03-.34-2.39,0-3.08.68-1.71,1.71-11.62,17.09-35.88,41.69-26.32,26.66-55.02,42.72-62.2,37.59-5.81-4.1-.68-19.14,9.57-37.25,15.38-.68,35.88-9.57,48.19-19.14,10.59-8.2,18.46-20.16,18.46-29.39,0-4.78-2.05-8.89-6.83-10.94-16.06-7.52-49.9,14.35-72.11,43.06-4.87,6.44-8.57,12.59-11.16,18.36-1.52,1.65-3.04,3.29-4.55,4.88-24.61,25.63-47.16,37.25-55.71,30.76-6.83-5.47.68-24.61,20.16-51.95,19.48-27.34,35.88-46.14,45.11-40.67,2.05,1.03,2.39,3.08,1.71,4.78-1.03,1.37-2.73,2.39-5.13,2.73-5.47.34-10.59,4.78-12.99,7.86-2.39,3.08-6.83,12.3.34,16.06,7.18,3.76,16.75-6.49,19.14-10.25,1.71-2.39,5.13-8.89,5.13-14.7,0-4.44-1.71-8.2-6.83-10.59-13.33-6.15-49.55,12.65-70.74,43.74-3.43,4.95-6.15,9.86-8.21,14.59-21.34,23.98-43.25,42.02-50.91,37.69-4.78-2.73-1.03-10.25,6.15-20.85,7.52-10.94,28.37-37.93,36.57-48.19s9.91-21.19,5.47-24.61c-4.79-3.76-12.99-.68-19.14,2.39-5.81,2.39-13.67,5.81-14.35,4.78-1.03-1.71,2.05-5.81,5.47-10.59,3.76-5.13,5.47-13.67,1.03-15.72-4.44-2.05-13.67,7.18-18.8,15.72-5.57,8.98-8.32,17.66-4.72,21.51-6.89,8.76-27.09,33.66-40.04,47.19-15.04,15.72-33.15,34.17-39.99,30.07-7.18-4.44,6.15-25.29,20.16-46.14,14.35-20.85,29.73-45.79,31.1-47.5,1.37-1.71,0-4.1-3.08-3.08-3.42,1.03-11.96,1.37-13.67.34-2.05-1.03-3.42,0-5.13,2.39-10.59,14.7-20.85,29.73-36.91,55.36-13.67,21.87-36.57,42.72-43.74,38.62-6.83-4.44,6.15-25.29,20.5-46.14,14.01-20.85,29.73-45.79,31.1-47.5,1.37-1.71,0-4.1-3.08-3.08-3.42,1.03-12.3,1.37-14.01.34-1.71-1.03-3.08,0-4.78,2.39-1.59,1.85-13.02,16.43-22.86,31-2.28,2.61-4.67,5.18-7.21,7.61-8.2,7.52-17.77,13.33-28.37,14.01,8.88-14.35,12.99-28.02,12.99-38.28,0-8.89-3.08-15.38-8.89-18.45-14.35-7.86-46.48,11.62-66.98,40.33-10.94,15.38-16.06,30.42-16.06,41.69,0,9.91,3.76,17.43,10.94,20.16,14.7,5.81,39.98-6.49,61.86-36.57,1.37-1.37,2.05-2.73,3.08-4.44h2.05c10.57-.21,20.39-6.07,27.7-11.88-7.61,13.64-12.32,25.98-12.32,35.8,0,7.52,2.73,12.99,8.89,16.4,11.96,6.15,27.68-7.52,42.72-23.24-1.71,10.59.34,19.14,8.54,23.24,13.67,7.18,32.81-12.3,49.55-30.76,15.95-17.23,37.26-42.79,41.69-48.33,6.41-1.04,15.49-7.13,18.45-4.98,3.76,2.73-16.06,24.26-26.31,38.62-5.81,8.54-11.28,20.16-11.28,29.73,0,6.49,2.39,11.96,9.23,14.7,16.06,7.18,38.28-15.04,52.29-29.05.42-.44.85-.9,1.29-1.37-.87,3.76-1.3,7.32-1.3,10.6,0,11.28,5.13,19.48,14.7,21.87,19.69,5.67,41.66-11.79,59.23-29.8-.52,2.52-.79,4.95-.79,7.24,0,10.59,5.47,18.45,14.7,21.87,18.45,6.15,51.95-21.19,68.35-37.59,16.75-16.75,36.91-42.38,38.62-44.43,1.03-1.37-.34-2.39-2.05-3.08ZM415.81,247.37c-4.44-1.37-8.2-3.42-9.91-6.49-2.05-4.1-1.37-6.15-.34-6.83,1.37-1.37,1.71.34,4.1.68,2.73,0,6.15-2.73,6.49-7.86.34-3.08-1.71-6.49-4.44-7.18-5.47-1.03-10.59,6.83-10.25,14.35,0,6.49,2.73,14.01,11.62,17.43-.34.68-.68,1.03-1.02,1.71-15.38,23.24-38.62,43.74-48.19,38.96-9.23-5.13,5.13-33.49,20.85-56.05,18.11-25.29,35.54-46.14,45.79-40.33,9.57,5.47-1.03,29.73-14.7,51.6ZM792.74,196.11c6.15,4.44-3.76,17.77-12.3,26.31-9.91,9.91-26.31,24.26-41.35,24.26,2.05-3.76,4.44-7.52,7.18-11.28,16.75-24.61,40.33-43.74,46.48-39.3Z"/>
      </g>
      <g>
        <path class="cls-7" d="M192.06,97.69q-47.86,0-47.86,97.69,0-97.69-47.86-97.69,47.86,0,47.86-97.69,0,97.69,47.86,97.69Z"/>
        <path class="cls-2" d="M192.06,97.69q-47.86,0-47.86,97.69,0-97.69-47.86-97.69,47.86,0,47.86-97.69,0,97.69,47.86,97.69Z"/>
      </g>
      <g>
        <path class="cls-7" d="M73.15,201.44q-36.58,0-36.58,56.07,0-56.07-36.58-56.07,36.58,0,36.58-56.07,0,56.07,36.58,56.07Z"/>
        <path class="cls-4" d="M73.15,201.44q-36.58,0-36.58,56.07,0-56.07-36.58-56.07,36.58,0,36.58-56.07,0,56.07,36.58,56.07Z"/>
      </g>
      <g>
        <path class="cls-7" d="M974.23,280.85q-34.83,0-34.83,56.05,0-56.05-34.83-56.05,34.83,0,34.83-56.05,0,56.05,34.83,56.05Z"/>
        <path class="cls-3" d="M974.23,280.85q-34.83,0-34.83,56.05,0-56.05-34.83-56.05,34.83,0,34.83-56.05,0,56.05,34.83,56.05Z"/>
      </g>
      <g>
        <path class="cls-7" d="M939.96,369.1q-64.55,0-64.55,98.95,0-98.95-64.55-98.95,64.55,0,64.55-98.95,0,98.95,64.55,98.95Z"/>
        <path class="cls-6" d="M939.96,369.1q-64.55,0-64.55,98.95,0-98.95-64.55-98.95,64.55,0,64.55-98.95,0,98.95,64.55,98.95Z"/>
      </g>
      <g>
        <ellipse class="cls-1" cx="485.33" cy="244.12" rx="87.43" ry="32.87"/>
        <g>
          <path class="cls-9" d="M437.12,242.3c4.08.16,5.7.91,5.98,4.9l.24,3.36c.1,1.38.31,2.04,1.28,2.04.66,0,1.04-.5,1.66-1.54l.55.25c-.52.94-1.35,2.54-4.6,2.54-2.32,0-5.32-.47-5.63-4.9l-.21-3.08c-.21-2.89-.86-3.45-2.14-3.45h-.21l-1.97,10.49h2.04l-.17.63h-10.2l.17-.63h1.83l3.8-20.76h-2.04l.1-.6h8.19c4.94,0,10.44.63,10.44,4.52s-4.01,5.78-9.12,6.12v.09ZM434.15,241.83h.24c2.7,0,5.12-1.79,5.12-5.75,0-2.58-1.28-3.92-3.46-3.92h-.21l-1.69,9.67Z"/>
          <path class="cls-9" d="M464.22,241.83c0,3.08-3.7,3.99-6.91,4.4-1.11.12-1.97.16-2.7.16-.48,4.43.48,6.34,2.9,6.34,1.69,0,3.56-1.1,4.77-4.52l.69.19c-1.28,3.86-3.8,5.46-7.95,5.46-4.39,0-6.98-2.14-6.98-5.84,0-6.44,4.29-9.73,10.4-9.73,3.91,0,5.77,1.22,5.77,3.55ZM458.13,238.88c-1.87,0-2.94,3.11-3.46,6.91,2.35-.09,4.49-1.13,4.49-4.99,0-1.16-.21-1.92-1.04-1.92Z"/>
          <path class="cls-9" d="M479.94,248.33c-.69,2.39-2.35,5.53-7.43,5.53s-7.29-2.2-7.29-6.06c0-5.75,3.91-9.51,10.68-9.51,3.8,0,5.32,1.73,5.32,3.55,0,1.7-1,3.3-3.32,3.3-1.87,0-2.42-1.04-2.42-1.98,0-.53.24-1.13.52-1.66h1.45c.28-.6.38-1.07.38-1.44,0-.97-.76-1.19-1.45-1.19-2.21,0-3.32,2.36-3.91,5.28-.31,1.57-.59,3.23-.59,4.99,0,2.61.86,3.64,2.73,3.64,1.56,0,3.63-1.22,4.63-4.58l.69.16Z"/>
          <path class="cls-9" d="M483.57,247.36l1.24-8.2h-2.35l.1-.56h8.54l-1.49,5.9.17.03c1-2.42,3.49-6.25,7.36-6.25,1.52,0,3.21.69,3.21,2.79s-1.49,3.01-3.28,3.05c-.76,0-1.59-.16-2.38-.53l-.21-2.61c-1.87.06-3.7,2.35-4.56,5.78-.73,2.89-.9,4.84-.97,6.63-1.45-.06-5.18.19-6.95.41l1.56-6.44Z"/>
          <path class="cls-9" d="M503.76,239.16h-2.35l.1-.56h8.85c-1.49,5.87-2.35,9.42-2.73,11.68-.14.79-.35,1.82.83,1.82,1.52,0,3.28-3.23,4.22-7.79.38-1.79.76-4.02.76-5.4,1.07.03,5.94-.19,6.91-.38-.86,3.8-2.07,9.26-2.45,12.12-.14,1.04-.28,2.01.79,2.01.62,0,1.35-.47,2.28-1.76l.55.38c-1.42,1.98-2.94,2.58-4.98,2.58-3.87,0-5.15-1.79-3.97-5.37l-.21-.06c-1.24,3.05-2.97,5.43-6.95,5.43-3.28,0-4.35-2.07-3.8-4.77.55-2.67,1.69-8.01,2.14-9.92Z"/>
          <path class="cls-9" d="M533.03,251.09c-1.24,1.76-2.52,2.76-5.08,2.76s-4.42-1-4.42-3.64c0-.72.24-2.04.45-3.05l1.76-8.01h-2.73l.1-.56h9.16c-1.38,6.09-1.97,8.82-2.42,11.02-.14.79-.35,1.6-.35,2.2,0,.57.35.75.73.75.62,0,1.35-.57,2.28-1.82l.52.35ZM525.67,233.98c0-2.14,2.07-3.39,4.49-3.39,1.97,0,3.18.82,3.18,2.39,0,2.13-2.11,3.36-4.46,3.36-2.52,0-3.21-1.29-3.21-2.35Z"/>
          <path class="cls-9" d="M543.82,239.16l-1.45,6.66c-.41,1.88-.9,3.64-.9,4.87,0,.97.28,1.6,1.42,1.6,1.07,0,2-.72,3.35-2.92l.62.35c-1.31,2.17-3.01,4.18-6.43,4.18-4.04,0-5.08-2.1-5.08-3.96,0-1.13.28-2.64.66-4.37l1.35-6.41h-2.49l.1-.56h2.49l.66-3.23,5.94-1.19h.69l-.83,4.43h3.63l-.1.56h-3.63Z"/>
        </g>
      </g>
    </g>
  </g>
</svg>