<?xml version="1.0" encoding="UTF-8"?>
<svg id="_레이어_2" data-name="레이어 2" xmlns="http://www.w3.org/2000/svg" viewBox="0 0 499.5 499.5">
  <g id="_레이어_1-2" data-name="레이어 1">
    <g>
      <path d="m139.73,429.75c-5.97,0-8.59,5.61-8.59,11.79,0,6.11,2.63,11.72,8.59,11.72,5.97,0,8.59-5.61,8.59-11.72,0-6.18-2.63-11.79-8.59-11.79Z"/>
      <path d="m153.88,259.29c-6.39,0-8.24,4.97-8.38,7.81h16.41c-.92-5.11-3.12-7.81-8.03-7.81Z"/>
      <path d="m89.16,449.42c0,3.76,2.91,4.69,6.18,4.69,7.88,0,8.17-6.25,8.17-8.45v-3.76c-1.7,1.49-5.26,1.56-8.38,2.13-3.13.64-5.97,1.71-5.97,5.4Z"/>
      <path d="m112.32,282.79c6.61,0,8.74-5.68,8.74-11.65,0-5.82-2.34-11.86-8.81-11.86-6.61,0-8.74,5.9-8.74,11.86,0,5.97,2.27,11.65,8.81,11.65Z"/>
      <path d="m48.54,264.25c0,8.45,3.76,16.98,13.78,16.98,10.02,0,13.78-8.52,13.78-16.98,0-8.88-3.76-17.4-13.78-17.4s-13.78,8.52-13.78,17.4Z"/>
      <path d="m253.95,344.52c-6.39,0-8.24,4.97-8.38,7.81h16.41c-.92-5.11-3.12-7.81-8.03-7.81Z"/>
      <path d="m102.45,344.52c-6.82,0-8.88,5.89-8.88,11.79,0,5.82,2.06,11.72,8.88,11.72,6.89,0,8.95-5.9,8.95-11.72,0-5.9-2.06-11.79-8.95-11.79Z"/>
      <path d="m0,46.9v405.71c0,25.9,21,46.9,46.9,46.9h405.71c25.9,0,46.9-21,46.9-46.9V46.9c0-25.9-21-46.9-46.9-46.9H46.9C21,0,0,21,0,46.9Zm98.47,4.05c36.86,0,66.74,29.88,66.74,66.74s-29.88,66.74-66.74,66.74S31.73,154.54,31.73,117.68,61.61,50.95,98.47,50.95Zm5.05,206.42c2.41-3.91,6.39-5.68,10.94-5.68,11.51,0,16.69,9.3,16.69,19.75,0,9.8-5.4,18.96-16.12,18.96-4.4,0-8.59-1.92-11.01-5.54h-.14v17.47s-10.09,0-10.09,0v-49.65s9.59,0,9.59,0v4.69h.14Zm-16.26,6.89c0,14.63-9.23,26.35-24.93,26.35-15.7,0-24.93-11.72-24.93-26.35,0-15.06,9.23-26.78,24.93-26.78,15.7,0,24.93,11.72,24.93,26.78Zm-40.06,93.54c0,6.75,5.26,9.38,11.22,9.38,3.91,0,9.87-1.14,9.87-6.32,0-5.47-7.6-6.39-15.06-8.38-7.53-1.99-15.13-4.9-15.13-14.42,0-10.37,9.8-15.34,18.97-15.34,10.58,0,20.31,4.62,20.31,16.34h-10.8c-.35-6.11-4.69-7.67-10.02-7.67-3.55,0-7.67,1.49-7.67,5.75,0,3.91,2.42,4.4,15.13,7.67,3.69.92,15.06,3.27,15.06,14.77,0,9.31-7.32,16.26-21.1,16.26-11.22,0-21.74-5.54-21.59-18.04h10.8Zm28.27,102.07h-35.87s0-50.72,0-50.72h11.15v41.34s24.72,0,24.72,0v9.38Zm29.19,0c-.36-1.14-.64-2.34-.71-3.55-3.2,3.34-7.88,4.55-12.36,4.54-6.96,0-12.5-3.48-12.5-11.01,0-8.31,6.25-10.3,12.5-11.15,6.18-.92,11.93-.71,11.93-4.83,0-4.33-2.98-4.97-6.53-4.97-3.84,0-6.32,1.56-6.68,5.54h-10.09c.57-9.45,9.02-12.29,17.26-12.29,7.32,0,16.12,1.63,16.12,10.44v19.11c0,3.34.35,6.68,1.28,8.17h-10.23Zm-2.2-84.24c-11.51,0-18.96-7.67-18.96-19.32,0-11.72,7.46-19.39,18.97-19.39,11.58,0,19.04,7.67,19.04,19.39,0,11.65-7.46,19.32-19.04,19.32Zm40.77,85.23c-5.4,0-9.87-1.63-12.07-5.68h-.14v4.69h-9.59v-50.71h10.09v18.47s.14,0,.14,0c2.49-3.76,7.03-5.47,11.58-5.47,7.32,0,15.2,5.9,15.2,19.32,0,13.5-7.88,19.39-15.2,19.39Zm19.25-86.23h-9.59v-5.12h-.21c-2.56,4.12-6.96,6.11-11.22,6.11-10.73,0-13.42-6.04-13.42-15.13v-22.59s10.09,0,10.09,0v20.74c0,6.04,1.77,9.02,6.46,9.02,5.47,0,7.81-3.05,7.81-10.51v-19.25s10.09,0,10.09,0v36.72Zm-8.31-84.24c-11.58,0-18.75-7.96-18.75-19.32,0-11.01,7.6-19.39,18.75-19.39,12.5,0,18.54,10.51,17.83,21.81h-26.49c.28,6.39,3.41,9.3,9.02,9.31,4.05,0,7.32-2.49,7.96-4.76h8.88c-2.84,8.67-8.88,12.36-17.19,12.36Zm39.63,56.25c-.92-.21-2.42-.36-3.62-.36-7.39,0-9.94,5.33-9.94,11.79v16.55s-10.09,0-10.09,0v-36.72s9.59,0,9.59,0v6.82s.14,0,.14,0c1.85-4.62,6.82-7.81,11.72-7.81.71,0,1.56.14,2.2.36v9.38Zm-6.03-88.86c2.56-4.12,6.96-6.11,11.22-6.11,10.73,0,13.42,6.04,13.42,15.13v22.59h-10.09v-20.74c0-6.04-1.77-9.02-6.46-9.02-5.47,0-7.81,3.05-7.81,10.51v19.25h-10.09v-36.72s9.59,0,9.59,0v5.11h.21Zm26.13,117.84c-11.08,0-18.54-7.81-18.54-18.82,0-11.44,6.82-19.89,18.75-19.89,8.67,0,16.62,4.55,17.26,13.92h-9.87c-.64-4.12-3.27-6.32-7.46-6.32-6.46,0-8.59,6.53-8.6,11.93,0,5.26,2.06,11.58,8.38,11.58,4.69,0,7.39-2.98,8.03-7.46h9.73c-1.28,9.73-8.03,15.06-17.69,15.06Zm58.17-16.9h-26.5c.28,6.39,3.41,9.3,9.02,9.3,4.05,0,7.32-2.49,7.96-4.76h8.88c-2.84,8.67-8.88,12.36-17.19,12.36-11.58,0-18.75-7.96-18.75-19.32,0-11.01,7.6-19.39,18.75-19.39,12.5,0,18.54,10.51,17.83,21.81Zm-101.11-177L245.59,52.45l74.64,129.28h-149.28Zm291.03-.38h-114.68v-30.84h114.68v30.84Zm0-48.67h-114.68v-30.84h114.68v30.84Zm0-48.67h-114.68v-30.84h114.68v30.84Z"/>
    </g>
  </g>
</svg>